%TF.GenerationSoftware,KiCad,Pcbnew,9.0.4*%
%TF.CreationDate,2026-02-19T21:55:22-06:00*%
%TF.ProjectId,CANCap,43414e43-6170-42e6-9b69-6361645f7063,rev?*%
%TF.SameCoordinates,Original*%
%TF.FileFunction,Copper,L1,Top*%
%TF.FilePolarity,Positive*%
%FSLAX46Y46*%
G04 Gerber Fmt 4.6, Leading zero omitted, Abs format (unit mm)*
G04 Created by KiCad (PCBNEW 9.0.4) date 2026-02-19 21:55:22*
%MOMM*%
%LPD*%
G01*
G04 APERTURE LIST*
G04 Aperture macros list*
%AMRoundRect*
0 Rectangle with rounded corners*
0 $1 Rounding radius*
0 $2 $3 $4 $5 $6 $7 $8 $9 X,Y pos of 4 corners*
0 Add a 4 corners polygon primitive as box body*
4,1,4,$2,$3,$4,$5,$6,$7,$8,$9,$2,$3,0*
0 Add four circle primitives for the rounded corners*
1,1,$1+$1,$2,$3*
1,1,$1+$1,$4,$5*
1,1,$1+$1,$6,$7*
1,1,$1+$1,$8,$9*
0 Add four rect primitives between the rounded corners*
20,1,$1+$1,$2,$3,$4,$5,0*
20,1,$1+$1,$4,$5,$6,$7,0*
20,1,$1+$1,$6,$7,$8,$9,0*
20,1,$1+$1,$8,$9,$2,$3,0*%
G04 Aperture macros list end*
%TA.AperFunction,ComponentPad*%
%ADD10C,1.800000*%
%TD*%
%TA.AperFunction,SMDPad,CuDef*%
%ADD11RoundRect,0.150000X0.587500X0.150000X-0.587500X0.150000X-0.587500X-0.150000X0.587500X-0.150000X0*%
%TD*%
%TA.AperFunction,Conductor*%
%ADD12C,0.200000*%
%TD*%
G04 APERTURE END LIST*
D10*
%TO.P,J1,1,Pin_1*%
%TO.N,+5V*%
X81767767Y-58232233D03*
%TO.P,J1,2,Pin_2*%
%TO.N,/CANH*%
X78232233Y-58232233D03*
%TO.P,J1,3,Pin_3*%
%TO.N,GND*%
X78232233Y-61767767D03*
%TO.P,J1,4,Pin_4*%
%TO.N,/CANL*%
X81767767Y-61767767D03*
%TO.P,J1,5,Pin_5*%
%TO.N,unconnected-(J1-Pin_5-Pad5)*%
X80000000Y-60000000D03*
%TD*%
D11*
%TO.P,D1,1,A1*%
%TO.N,/CANL*%
X85037500Y-60950000D03*
%TO.P,D1,2,A2*%
%TO.N,/CANH*%
X85037500Y-59050000D03*
%TO.P,D1,3,common*%
%TO.N,GND*%
X83162500Y-60000000D03*
%TD*%
D12*
%TO.N,GND*%
X81750000Y-60000000D02*
X79982233Y-61767767D01*
X83162500Y-60000000D02*
X81750000Y-60000000D01*
%TO.N,/CANH*%
X85037500Y-59050000D02*
X82648471Y-59050000D01*
X81198471Y-59500000D02*
X79930704Y-58232233D01*
X79930704Y-58232233D02*
X78232233Y-58232233D01*
X82198471Y-59500000D02*
X81198471Y-59500000D01*
X82648471Y-59050000D02*
X82198471Y-59500000D01*
%TO.N,/CANL*%
X82585534Y-60950000D02*
X81767767Y-61767767D01*
X85037500Y-60950000D02*
X82585534Y-60950000D01*
%TD*%
%TA.AperFunction,Conductor*%
%TO.N,GND*%
G36*
X82089283Y-59920462D02*
G01*
X82143821Y-59975000D01*
X82163783Y-60049500D01*
X82143821Y-60124000D01*
X82125001Y-60148526D01*
X82125001Y-60204219D01*
X82127850Y-60234604D01*
X82172654Y-60362648D01*
X82177871Y-60372518D01*
X82175286Y-60373884D01*
X82197036Y-60429288D01*
X82185547Y-60505556D01*
X82137463Y-60565861D01*
X82065669Y-60594045D01*
X82025667Y-60593149D01*
X81941099Y-60579755D01*
X81862248Y-60567267D01*
X81673286Y-60567267D01*
X81486649Y-60596827D01*
X81367464Y-60635553D01*
X81301368Y-60657029D01*
X81300990Y-60655867D01*
X81230939Y-60665079D01*
X81159686Y-60635553D01*
X81112742Y-60574356D01*
X81102687Y-60497887D01*
X81111096Y-60466515D01*
X81110738Y-60466399D01*
X81112547Y-60460832D01*
X81170940Y-60281118D01*
X81200500Y-60094481D01*
X81200500Y-60049500D01*
X81220462Y-59975000D01*
X81275000Y-59920462D01*
X81349500Y-59900500D01*
X82014783Y-59900500D01*
X82089283Y-59920462D01*
G37*
%TD.AperFunction*%
%TA.AperFunction,Conductor*%
G36*
X80244434Y-53305149D02*
G01*
X80710843Y-53338506D01*
X80721403Y-53339642D01*
X81184263Y-53406191D01*
X81194692Y-53408072D01*
X81651645Y-53507477D01*
X81661934Y-53510103D01*
X82110586Y-53641839D01*
X82120668Y-53645194D01*
X82558821Y-53808616D01*
X82568621Y-53812676D01*
X82826835Y-53930599D01*
X82993971Y-54006928D01*
X83003482Y-54011689D01*
X83232587Y-54136789D01*
X83413888Y-54235787D01*
X83423022Y-54241206D01*
X83816408Y-54494020D01*
X83825125Y-54500072D01*
X84158182Y-54749395D01*
X84199468Y-54780301D01*
X84207750Y-54786976D01*
X84561136Y-55093188D01*
X84568921Y-55100435D01*
X84899564Y-55431078D01*
X84906811Y-55438863D01*
X85213023Y-55792249D01*
X85219698Y-55800531D01*
X85499920Y-56174864D01*
X85505986Y-56183601D01*
X85758789Y-56576971D01*
X85764216Y-56586118D01*
X85988310Y-56996517D01*
X85993071Y-57006028D01*
X86187317Y-57431364D01*
X86191388Y-57441191D01*
X86354803Y-57879326D01*
X86358161Y-57889418D01*
X86489893Y-58338056D01*
X86492524Y-58348362D01*
X86591923Y-58805288D01*
X86593811Y-58815755D01*
X86660356Y-59278588D01*
X86661493Y-59289163D01*
X86694851Y-59755564D01*
X86695231Y-59766194D01*
X86695231Y-60233805D01*
X86694851Y-60244435D01*
X86661493Y-60710836D01*
X86660356Y-60721411D01*
X86593811Y-61184244D01*
X86591923Y-61194711D01*
X86492524Y-61651637D01*
X86489893Y-61661943D01*
X86358161Y-62110581D01*
X86354803Y-62120673D01*
X86191388Y-62558808D01*
X86187317Y-62568635D01*
X85993071Y-62993971D01*
X85988310Y-63003482D01*
X85764216Y-63413881D01*
X85758789Y-63423028D01*
X85505986Y-63816398D01*
X85499920Y-63825135D01*
X85219698Y-64199468D01*
X85213023Y-64207750D01*
X84906811Y-64561136D01*
X84899564Y-64568921D01*
X84568921Y-64899564D01*
X84561136Y-64906811D01*
X84207750Y-65213023D01*
X84199468Y-65219698D01*
X83825135Y-65499920D01*
X83816398Y-65505986D01*
X83423028Y-65758789D01*
X83413881Y-65764216D01*
X83003482Y-65988310D01*
X82993971Y-65993071D01*
X82568635Y-66187317D01*
X82558808Y-66191388D01*
X82120673Y-66354803D01*
X82110581Y-66358161D01*
X81661943Y-66489893D01*
X81651637Y-66492524D01*
X81194711Y-66591923D01*
X81184244Y-66593811D01*
X80721411Y-66660356D01*
X80710836Y-66661493D01*
X80285379Y-66691922D01*
X80244433Y-66694851D01*
X80233805Y-66695231D01*
X79766195Y-66695231D01*
X79755566Y-66694851D01*
X79709904Y-66691585D01*
X79289163Y-66661493D01*
X79278588Y-66660356D01*
X78815755Y-66593811D01*
X78805288Y-66591923D01*
X78348362Y-66492524D01*
X78338056Y-66489893D01*
X77889418Y-66358161D01*
X77879326Y-66354803D01*
X77441191Y-66191388D01*
X77431364Y-66187317D01*
X77006028Y-65993071D01*
X76996517Y-65988310D01*
X76586118Y-65764216D01*
X76576971Y-65758789D01*
X76183601Y-65505986D01*
X76174864Y-65499920D01*
X75800531Y-65219698D01*
X75792249Y-65213023D01*
X75438863Y-64906811D01*
X75431078Y-64899564D01*
X75100435Y-64568921D01*
X75093188Y-64561136D01*
X74786976Y-64207750D01*
X74780301Y-64199468D01*
X74500072Y-63825125D01*
X74494020Y-63816408D01*
X74241206Y-63423022D01*
X74235783Y-63413881D01*
X74011689Y-63003482D01*
X74006928Y-62993971D01*
X73882379Y-62721248D01*
X73865119Y-62683454D01*
X73812672Y-62568612D01*
X73808616Y-62558821D01*
X73645194Y-62120668D01*
X73641838Y-62110581D01*
X73631324Y-62074774D01*
X73510103Y-61661934D01*
X73507475Y-61651637D01*
X73408072Y-61194692D01*
X73406191Y-61184263D01*
X73339642Y-60721403D01*
X73338506Y-60710835D01*
X73335280Y-60665735D01*
X73305149Y-60244434D01*
X73304769Y-60233805D01*
X73304769Y-59766194D01*
X73305149Y-59755565D01*
X73312867Y-59647646D01*
X73338507Y-59289153D01*
X73339643Y-59278588D01*
X73406192Y-58815731D01*
X73408071Y-58805311D01*
X73507478Y-58348347D01*
X73510094Y-58338097D01*
X73568921Y-58137752D01*
X77031733Y-58137752D01*
X77031733Y-58326714D01*
X77061293Y-58513351D01*
X77119686Y-58693065D01*
X77205473Y-58861432D01*
X77316543Y-59014306D01*
X77450160Y-59147923D01*
X77603034Y-59258993D01*
X77771401Y-59344780D01*
X77951115Y-59403173D01*
X78137752Y-59432733D01*
X78137757Y-59432733D01*
X78326709Y-59432733D01*
X78326714Y-59432733D01*
X78513351Y-59403173D01*
X78693065Y-59344780D01*
X78693066Y-59344779D01*
X78698632Y-59342971D01*
X78699011Y-59344138D01*
X78769024Y-59334915D01*
X78840284Y-59364424D01*
X78887243Y-59425609D01*
X78897317Y-59502076D01*
X78888905Y-59533485D01*
X78889262Y-59533601D01*
X78887453Y-59539167D01*
X78887453Y-59539168D01*
X78829060Y-59718882D01*
X78799500Y-59905519D01*
X78799500Y-60094481D01*
X78823250Y-60244434D01*
X78829060Y-60281117D01*
X78887452Y-60460830D01*
X78887522Y-60460998D01*
X78887532Y-60461075D01*
X78889262Y-60466399D01*
X78888274Y-60466719D01*
X78897585Y-60537467D01*
X78868066Y-60608723D01*
X78806874Y-60655672D01*
X78730405Y-60665735D01*
X78698535Y-60657198D01*
X78698440Y-60657492D01*
X78513239Y-60597316D01*
X78513239Y-60597315D01*
X78326671Y-60567767D01*
X78137795Y-60567767D01*
X77951226Y-60597315D01*
X77951226Y-60597316D01*
X77771590Y-60655683D01*
X77603295Y-60741435D01*
X77495992Y-60819393D01*
X78000694Y-61324096D01*
X77925226Y-61367668D01*
X77832134Y-61460760D01*
X77788562Y-61536228D01*
X77283859Y-61031526D01*
X77205901Y-61138829D01*
X77120149Y-61307124D01*
X77061782Y-61486760D01*
X77061781Y-61486760D01*
X77032233Y-61673328D01*
X77032233Y-61862205D01*
X77061781Y-62048773D01*
X77120149Y-62228409D01*
X77205902Y-62396705D01*
X77283859Y-62504006D01*
X77788561Y-61999304D01*
X77832134Y-62074774D01*
X77925226Y-62167866D01*
X78000693Y-62211437D01*
X77495992Y-62716138D01*
X77495992Y-62716139D01*
X77603294Y-62794097D01*
X77771590Y-62879850D01*
X77951226Y-62938217D01*
X77951226Y-62938218D01*
X78137795Y-62967767D01*
X78326671Y-62967767D01*
X78513239Y-62938218D01*
X78513239Y-62938217D01*
X78692875Y-62879850D01*
X78861171Y-62794097D01*
X78861180Y-62794092D01*
X78968472Y-62716140D01*
X78968472Y-62716138D01*
X78463771Y-62211437D01*
X78539240Y-62167866D01*
X78632332Y-62074774D01*
X78675903Y-61999305D01*
X79180604Y-62504006D01*
X79180606Y-62504006D01*
X79258558Y-62396714D01*
X79258563Y-62396705D01*
X79344316Y-62228409D01*
X79402683Y-62048773D01*
X79402684Y-62048773D01*
X79432233Y-61862205D01*
X79432233Y-61673328D01*
X79402684Y-61486760D01*
X79342508Y-61301560D01*
X79343545Y-61301223D01*
X79334265Y-61230675D01*
X79363788Y-61159421D01*
X79424982Y-61112474D01*
X79501451Y-61102415D01*
X79533513Y-61111008D01*
X79533601Y-61110738D01*
X79538758Y-61112413D01*
X79539013Y-61112482D01*
X79539158Y-61112542D01*
X79539168Y-61112547D01*
X79718882Y-61170940D01*
X79905519Y-61200500D01*
X79905524Y-61200500D01*
X80094476Y-61200500D01*
X80094481Y-61200500D01*
X80281118Y-61170940D01*
X80460832Y-61112547D01*
X80460833Y-61112546D01*
X80466399Y-61110738D01*
X80466778Y-61111905D01*
X80536791Y-61102682D01*
X80608051Y-61132191D01*
X80655010Y-61193376D01*
X80665084Y-61269843D01*
X80656672Y-61301252D01*
X80657029Y-61301368D01*
X80655220Y-61306934D01*
X80655220Y-61306935D01*
X80596827Y-61486649D01*
X80567267Y-61673286D01*
X80567267Y-61862248D01*
X80596827Y-62048885D01*
X80655220Y-62228599D01*
X80741007Y-62396966D01*
X80852077Y-62549840D01*
X80985694Y-62683457D01*
X81138568Y-62794527D01*
X81306935Y-62880314D01*
X81486649Y-62938707D01*
X81673286Y-62968267D01*
X81673291Y-62968267D01*
X81862243Y-62968267D01*
X81862248Y-62968267D01*
X82048885Y-62938707D01*
X82228599Y-62880314D01*
X82396966Y-62794527D01*
X82549840Y-62683457D01*
X82683457Y-62549840D01*
X82794527Y-62396966D01*
X82880314Y-62228599D01*
X82938707Y-62048885D01*
X82968267Y-61862248D01*
X82968267Y-61673286D01*
X82944434Y-61522808D01*
X82952497Y-61446102D01*
X82997832Y-61383705D01*
X83068292Y-61352334D01*
X83091600Y-61350500D01*
X83999752Y-61350500D01*
X84074252Y-61370462D01*
X84119635Y-61411019D01*
X84127849Y-61422148D01*
X84127850Y-61422150D01*
X84127853Y-61422153D01*
X84237116Y-61502792D01*
X84237117Y-61502792D01*
X84237118Y-61502793D01*
X84365301Y-61547646D01*
X84395734Y-61550500D01*
X84395741Y-61550500D01*
X85679259Y-61550500D01*
X85679266Y-61550500D01*
X85709699Y-61547646D01*
X85837882Y-61502793D01*
X85947150Y-61422150D01*
X86027793Y-61312882D01*
X86072646Y-61184699D01*
X86075500Y-61154266D01*
X86075500Y-60745734D01*
X86072646Y-60715301D01*
X86027793Y-60587118D01*
X86018374Y-60574356D01*
X85947151Y-60477851D01*
X85947148Y-60477848D01*
X85837883Y-60397207D01*
X85771228Y-60373884D01*
X85709699Y-60352354D01*
X85709697Y-60352353D01*
X85709695Y-60352353D01*
X85679275Y-60349500D01*
X85679266Y-60349500D01*
X84395734Y-60349500D01*
X84377243Y-60351234D01*
X84362907Y-60352578D01*
X84286869Y-60339656D01*
X84227479Y-60290447D01*
X84200650Y-60218135D01*
X84200000Y-60204228D01*
X84200000Y-60150000D01*
X82429716Y-60150000D01*
X82389794Y-60139303D01*
X82355218Y-60130039D01*
X82355217Y-60130038D01*
X82355216Y-60130038D01*
X82325490Y-60100312D01*
X82300679Y-60075502D01*
X82293711Y-60049500D01*
X82291414Y-60040926D01*
X82280716Y-60001002D01*
X82280716Y-60001000D01*
X82300678Y-59926500D01*
X82355214Y-59871963D01*
X82358678Y-59869963D01*
X82433178Y-59850000D01*
X84199999Y-59850000D01*
X84199999Y-59795771D01*
X84219961Y-59721271D01*
X84274499Y-59666733D01*
X84348999Y-59646771D01*
X84362910Y-59647422D01*
X84372750Y-59648344D01*
X84395734Y-59650500D01*
X84395741Y-59650500D01*
X85679259Y-59650500D01*
X85679266Y-59650500D01*
X85709699Y-59647646D01*
X85837882Y-59602793D01*
X85947150Y-59522150D01*
X86027793Y-59412882D01*
X86072646Y-59284699D01*
X86075500Y-59254266D01*
X86075500Y-58845734D01*
X86072646Y-58815301D01*
X86027793Y-58687118D01*
X85987655Y-58632733D01*
X85947151Y-58577851D01*
X85947148Y-58577848D01*
X85837883Y-58497207D01*
X85778042Y-58476268D01*
X85709699Y-58452354D01*
X85709697Y-58452353D01*
X85709695Y-58452353D01*
X85679275Y-58449500D01*
X85679266Y-58449500D01*
X84395734Y-58449500D01*
X84395724Y-58449500D01*
X84365304Y-58452353D01*
X84237116Y-58497207D01*
X84127853Y-58577846D01*
X84127850Y-58577849D01*
X84127849Y-58577851D01*
X84119635Y-58588980D01*
X84059336Y-58637068D01*
X83999752Y-58649500D01*
X83091600Y-58649500D01*
X83017100Y-58629538D01*
X82962562Y-58575000D01*
X82942600Y-58500500D01*
X82944434Y-58477192D01*
X82964838Y-58348362D01*
X82968267Y-58326714D01*
X82968267Y-58137752D01*
X82938707Y-57951115D01*
X82880314Y-57771401D01*
X82794527Y-57603034D01*
X82683457Y-57450160D01*
X82549840Y-57316543D01*
X82396966Y-57205473D01*
X82228599Y-57119686D01*
X82048885Y-57061293D01*
X81862248Y-57031733D01*
X81673286Y-57031733D01*
X81486649Y-57061293D01*
X81306935Y-57119686D01*
X81306930Y-57119688D01*
X81306924Y-57119691D01*
X81138571Y-57205471D01*
X81138566Y-57205474D01*
X80985703Y-57316536D01*
X80985692Y-57316545D01*
X80852079Y-57450158D01*
X80852070Y-57450169D01*
X80741008Y-57603032D01*
X80741005Y-57603037D01*
X80655225Y-57771390D01*
X80655218Y-57771407D01*
X80596826Y-57951116D01*
X80596824Y-57951125D01*
X80590499Y-57991062D01*
X80559128Y-58061522D01*
X80496730Y-58106857D01*
X80420025Y-58114918D01*
X80349565Y-58083547D01*
X80337985Y-58073121D01*
X80176617Y-57911753D01*
X80176614Y-57911751D01*
X80176610Y-57911748D01*
X80085295Y-57859027D01*
X80085292Y-57859026D01*
X80057999Y-57851713D01*
X79983433Y-57831733D01*
X79983431Y-57831733D01*
X79466828Y-57831733D01*
X79392328Y-57811771D01*
X79337790Y-57757233D01*
X79334068Y-57750377D01*
X79311363Y-57705816D01*
X79258993Y-57603034D01*
X79147923Y-57450160D01*
X79014306Y-57316543D01*
X78861432Y-57205473D01*
X78693065Y-57119686D01*
X78513351Y-57061293D01*
X78326714Y-57031733D01*
X78137752Y-57031733D01*
X77951115Y-57061293D01*
X77771401Y-57119686D01*
X77771396Y-57119688D01*
X77771390Y-57119691D01*
X77603037Y-57205471D01*
X77603032Y-57205474D01*
X77450169Y-57316536D01*
X77450158Y-57316545D01*
X77316545Y-57450158D01*
X77316536Y-57450169D01*
X77205474Y-57603032D01*
X77205471Y-57603037D01*
X77119691Y-57771390D01*
X77119688Y-57771396D01*
X77119686Y-57771401D01*
X77061293Y-57951115D01*
X77031733Y-58137752D01*
X73568921Y-58137752D01*
X73641842Y-57889404D01*
X73645191Y-57879340D01*
X73808620Y-57441168D01*
X73812672Y-57431387D01*
X74006929Y-57006025D01*
X74011689Y-56996517D01*
X74235794Y-56586099D01*
X74241199Y-56576989D01*
X74494028Y-56183578D01*
X74500063Y-56174886D01*
X74780315Y-55800513D01*
X74786976Y-55792249D01*
X75093188Y-55438863D01*
X75100421Y-55431092D01*
X75431092Y-55100421D01*
X75438863Y-55093188D01*
X75792249Y-54786976D01*
X75800513Y-54780315D01*
X76174886Y-54500063D01*
X76183578Y-54494028D01*
X76576989Y-54241199D01*
X76586099Y-54235794D01*
X76996519Y-54011687D01*
X77006028Y-54006928D01*
X77020655Y-54000248D01*
X77431387Y-53812672D01*
X77441168Y-53808620D01*
X77879340Y-53645191D01*
X77889404Y-53641842D01*
X78338071Y-53510101D01*
X78348347Y-53507478D01*
X78805311Y-53408071D01*
X78815731Y-53406192D01*
X79278599Y-53339641D01*
X79289153Y-53338507D01*
X79755566Y-53305149D01*
X79766195Y-53304769D01*
X80233805Y-53304769D01*
X80244434Y-53305149D01*
G37*
%TD.AperFunction*%
%TD*%
M02*
