%TF.GenerationSoftware,KiCad,Pcbnew,9.0.4*%
%TF.CreationDate,2026-02-19T21:55:22-06:00*%
%TF.ProjectId,CANCap,43414e43-6170-42e6-9b69-6361645f7063,rev?*%
%TF.SameCoordinates,Original*%
%TF.FileFunction,Copper,L2,Bot*%
%TF.FilePolarity,Positive*%
%FSLAX46Y46*%
G04 Gerber Fmt 4.6, Leading zero omitted, Abs format (unit mm)*
G04 Created by KiCad (PCBNEW 9.0.4) date 2026-02-19 21:55:22*
%MOMM*%
%LPD*%
G01*
G04 APERTURE LIST*
G04 Aperture macros list*
%AMRoundRect*
0 Rectangle with rounded corners*
0 $1 Rounding radius*
0 $2 $3 $4 $5 $6 $7 $8 $9 X,Y pos of 4 corners*
0 Add a 4 corners polygon primitive as box body*
4,1,4,$2,$3,$4,$5,$6,$7,$8,$9,$2,$3,0*
0 Add four circle primitives for the rounded corners*
1,1,$1+$1,$2,$3*
1,1,$1+$1,$4,$5*
1,1,$1+$1,$6,$7*
1,1,$1+$1,$8,$9*
0 Add four rect primitives between the rounded corners*
20,1,$1+$1,$2,$3,$4,$5,0*
20,1,$1+$1,$4,$5,$6,$7,0*
20,1,$1+$1,$6,$7,$8,$9,0*
20,1,$1+$1,$8,$9,$2,$3,0*%
G04 Aperture macros list end*
%TA.AperFunction,ComponentPad*%
%ADD10C,1.800000*%
%TD*%
%TA.AperFunction,SMDPad,CuDef*%
%ADD11RoundRect,0.237500X0.250000X0.237500X-0.250000X0.237500X-0.250000X-0.237500X0.250000X-0.237500X0*%
%TD*%
%TA.AperFunction,SMDPad,CuDef*%
%ADD12RoundRect,0.237500X-0.237500X0.250000X-0.237500X-0.250000X0.237500X-0.250000X0.237500X0.250000X0*%
%TD*%
%TA.AperFunction,SMDPad,CuDef*%
%ADD13RoundRect,0.237500X-0.250000X-0.237500X0.250000X-0.237500X0.250000X0.237500X-0.250000X0.237500X0*%
%TD*%
%TA.AperFunction,Conductor*%
%ADD14C,0.200000*%
%TD*%
G04 APERTURE END LIST*
D10*
%TO.P,J1,1,Pin_1*%
%TO.N,+5V*%
X81767767Y-58232233D03*
%TO.P,J1,2,Pin_2*%
%TO.N,/CANH*%
X78232233Y-58232233D03*
%TO.P,J1,3,Pin_3*%
%TO.N,GND*%
X78232233Y-61767767D03*
%TO.P,J1,4,Pin_4*%
%TO.N,/CANL*%
X81767767Y-61767767D03*
%TO.P,J1,5,Pin_5*%
%TO.N,unconnected-(J1-Pin_5-Pad5)*%
X80000000Y-60000000D03*
%TD*%
D11*
%TO.P,C1,1*%
%TO.N,Net-(C1-Pad1)*%
X79212500Y-63600000D03*
%TO.P,C1,2*%
%TO.N,GND*%
X77387500Y-63600000D03*
%TD*%
D12*
%TO.P,R1,1*%
%TO.N,/CANH*%
X76300000Y-59087500D03*
%TO.P,R1,2*%
%TO.N,Net-(C1-Pad1)*%
X76300000Y-60912500D03*
%TD*%
D13*
%TO.P,R2,1*%
%TO.N,Net-(C1-Pad1)*%
X80787500Y-63600000D03*
%TO.P,R2,2*%
%TO.N,/CANL*%
X82612500Y-63600000D03*
%TD*%
D14*
%TO.N,Net-(C1-Pad1)*%
X78729704Y-60566767D02*
X79433233Y-61270296D01*
X79433233Y-63379267D02*
X79212500Y-63600000D01*
X80787500Y-63600000D02*
X79212500Y-63600000D01*
X79433233Y-61270296D02*
X79433233Y-63379267D01*
X76645733Y-60566767D02*
X78729704Y-60566767D01*
X76300000Y-60912500D02*
X76645733Y-60566767D01*
%TO.N,GND*%
X77387500Y-62612500D02*
X78232233Y-61767767D01*
X77387500Y-63600000D02*
X77387500Y-62612500D01*
%TO.N,/CANH*%
X76300000Y-59087500D02*
X77376966Y-59087500D01*
X77376966Y-59087500D02*
X78232233Y-58232233D01*
%TO.N,/CANL*%
X82612500Y-63600000D02*
X82612500Y-62612500D01*
X82612500Y-62612500D02*
X81767767Y-61767767D01*
%TD*%
%TA.AperFunction,Conductor*%
%TO.N,GND*%
G36*
X80244434Y-53305149D02*
G01*
X80710843Y-53338506D01*
X80721403Y-53339642D01*
X81184263Y-53406191D01*
X81194692Y-53408072D01*
X81651645Y-53507477D01*
X81661934Y-53510103D01*
X82110586Y-53641839D01*
X82120668Y-53645194D01*
X82558821Y-53808616D01*
X82568621Y-53812676D01*
X82826835Y-53930599D01*
X82993971Y-54006928D01*
X83003482Y-54011689D01*
X83232587Y-54136789D01*
X83413888Y-54235787D01*
X83423022Y-54241206D01*
X83816408Y-54494020D01*
X83825125Y-54500072D01*
X84158182Y-54749395D01*
X84199468Y-54780301D01*
X84207750Y-54786976D01*
X84561136Y-55093188D01*
X84568921Y-55100435D01*
X84899564Y-55431078D01*
X84906811Y-55438863D01*
X85213023Y-55792249D01*
X85219698Y-55800531D01*
X85499920Y-56174864D01*
X85505986Y-56183601D01*
X85758789Y-56576971D01*
X85764216Y-56586118D01*
X85988310Y-56996517D01*
X85993071Y-57006028D01*
X86187317Y-57431364D01*
X86191388Y-57441191D01*
X86354803Y-57879326D01*
X86358161Y-57889418D01*
X86489893Y-58338056D01*
X86492524Y-58348362D01*
X86591923Y-58805288D01*
X86593811Y-58815755D01*
X86660356Y-59278588D01*
X86661493Y-59289163D01*
X86678976Y-59533601D01*
X86692414Y-59721498D01*
X86694851Y-59755564D01*
X86695231Y-59766194D01*
X86695231Y-60233805D01*
X86694851Y-60244435D01*
X86661493Y-60710836D01*
X86660356Y-60721411D01*
X86593811Y-61184244D01*
X86591923Y-61194711D01*
X86492524Y-61651637D01*
X86489893Y-61661943D01*
X86358161Y-62110581D01*
X86354803Y-62120673D01*
X86191388Y-62558808D01*
X86187317Y-62568635D01*
X85993071Y-62993971D01*
X85988310Y-63003482D01*
X85764216Y-63413881D01*
X85758789Y-63423028D01*
X85505986Y-63816398D01*
X85499920Y-63825135D01*
X85219698Y-64199468D01*
X85213023Y-64207750D01*
X84906811Y-64561136D01*
X84899564Y-64568921D01*
X84568921Y-64899564D01*
X84561136Y-64906811D01*
X84207750Y-65213023D01*
X84199468Y-65219698D01*
X83825135Y-65499920D01*
X83816398Y-65505986D01*
X83423028Y-65758789D01*
X83413881Y-65764216D01*
X83003482Y-65988310D01*
X82993971Y-65993071D01*
X82568635Y-66187317D01*
X82558808Y-66191388D01*
X82120673Y-66354803D01*
X82110581Y-66358161D01*
X81661943Y-66489893D01*
X81651637Y-66492524D01*
X81194711Y-66591923D01*
X81184244Y-66593811D01*
X80721411Y-66660356D01*
X80710836Y-66661493D01*
X80285379Y-66691922D01*
X80244433Y-66694851D01*
X80233805Y-66695231D01*
X79766195Y-66695231D01*
X79755566Y-66694851D01*
X79709904Y-66691585D01*
X79289163Y-66661493D01*
X79278588Y-66660356D01*
X78815755Y-66593811D01*
X78805288Y-66591923D01*
X78348362Y-66492524D01*
X78338056Y-66489893D01*
X77889418Y-66358161D01*
X77879326Y-66354803D01*
X77441191Y-66191388D01*
X77431364Y-66187317D01*
X77006028Y-65993071D01*
X76996517Y-65988310D01*
X76586118Y-65764216D01*
X76576971Y-65758789D01*
X76183601Y-65505986D01*
X76174864Y-65499920D01*
X75800531Y-65219698D01*
X75792249Y-65213023D01*
X75438863Y-64906811D01*
X75431078Y-64899564D01*
X75100435Y-64568921D01*
X75093188Y-64561136D01*
X74786976Y-64207750D01*
X74780301Y-64199468D01*
X74540837Y-63879581D01*
X76600000Y-63879581D01*
X76610372Y-63965956D01*
X76610373Y-63965957D01*
X76664577Y-64103410D01*
X76753855Y-64221141D01*
X76753858Y-64221144D01*
X76871589Y-64310421D01*
X76871589Y-64310422D01*
X77009042Y-64364626D01*
X77009043Y-64364627D01*
X77095418Y-64374999D01*
X77095423Y-64375000D01*
X77237500Y-64375000D01*
X77237500Y-63750000D01*
X76600000Y-63750000D01*
X76600000Y-63879581D01*
X74540837Y-63879581D01*
X74500072Y-63825125D01*
X74494014Y-63816399D01*
X74241206Y-63423022D01*
X74235783Y-63413881D01*
X74184748Y-63320418D01*
X76600000Y-63320418D01*
X76600000Y-63450000D01*
X77237500Y-63450000D01*
X77237500Y-62825000D01*
X77095418Y-62825000D01*
X77009043Y-62835372D01*
X77009042Y-62835373D01*
X76871589Y-62889577D01*
X76871589Y-62889578D01*
X76753858Y-62978855D01*
X76753855Y-62978858D01*
X76664578Y-63096589D01*
X76664577Y-63096589D01*
X76610373Y-63234042D01*
X76610372Y-63234043D01*
X76600000Y-63320418D01*
X74184748Y-63320418D01*
X74062529Y-63096589D01*
X74011689Y-63003482D01*
X74006928Y-62993971D01*
X73861090Y-62674632D01*
X73812676Y-62568621D01*
X73808616Y-62558821D01*
X73645194Y-62120668D01*
X73641838Y-62110581D01*
X73631324Y-62074774D01*
X73510103Y-61661934D01*
X73507475Y-61651637D01*
X73504044Y-61635863D01*
X73408072Y-61194692D01*
X73406191Y-61184263D01*
X73339642Y-60721403D01*
X73338506Y-60710835D01*
X73334528Y-60655220D01*
X73305149Y-60244434D01*
X73304769Y-60233805D01*
X73304769Y-59766194D01*
X73305149Y-59755565D01*
X73307585Y-59721500D01*
X73338507Y-59289153D01*
X73339643Y-59278588D01*
X73406192Y-58815731D01*
X73408069Y-58805321D01*
X73410231Y-58795381D01*
X75524500Y-58795381D01*
X75524500Y-59379618D01*
X75534882Y-59466073D01*
X75534882Y-59466074D01*
X75534883Y-59466077D01*
X75577673Y-59574585D01*
X75589137Y-59603656D01*
X75589137Y-59603657D01*
X75676514Y-59718882D01*
X75678500Y-59721500D01*
X75796342Y-59810862D01*
X75924469Y-59861388D01*
X75986450Y-59907289D01*
X76017179Y-59978032D01*
X76008419Y-60054661D01*
X75962518Y-60116643D01*
X75924470Y-60138610D01*
X75871606Y-60159457D01*
X75796343Y-60189137D01*
X75796342Y-60189137D01*
X75678501Y-60278498D01*
X75678498Y-60278501D01*
X75589137Y-60396342D01*
X75589137Y-60396343D01*
X75534883Y-60533924D01*
X75534882Y-60533926D01*
X75524500Y-60620381D01*
X75524500Y-61204618D01*
X75534882Y-61291073D01*
X75534882Y-61291074D01*
X75534883Y-61291077D01*
X75557922Y-61349500D01*
X75589137Y-61428656D01*
X75589137Y-61428657D01*
X75633113Y-61486649D01*
X75678500Y-61546500D01*
X75796342Y-61635862D01*
X75933923Y-61690117D01*
X76020382Y-61700500D01*
X76020383Y-61700500D01*
X76579617Y-61700500D01*
X76579618Y-61700500D01*
X76666077Y-61690117D01*
X76803658Y-61635862D01*
X76803661Y-61635859D01*
X76810200Y-61632183D01*
X76884921Y-61613067D01*
X76959190Y-61633872D01*
X77013107Y-61689024D01*
X77032233Y-61762057D01*
X77032233Y-61862205D01*
X77061781Y-62048773D01*
X77120149Y-62228409D01*
X77205902Y-62396705D01*
X77283859Y-62504006D01*
X77788561Y-61999304D01*
X77832134Y-62074774D01*
X77925226Y-62167866D01*
X78000694Y-62211437D01*
X77537500Y-62674632D01*
X77537500Y-64375000D01*
X77679577Y-64375000D01*
X77679581Y-64374999D01*
X77765956Y-64364627D01*
X77765957Y-64364626D01*
X77903410Y-64310422D01*
X77903410Y-64310421D01*
X78021141Y-64221144D01*
X78021144Y-64221141D01*
X78110420Y-64103412D01*
X78161119Y-63974850D01*
X78207020Y-63912867D01*
X78277763Y-63882139D01*
X78354392Y-63890899D01*
X78416375Y-63936800D01*
X78438343Y-63974850D01*
X78489137Y-64103655D01*
X78489137Y-64103657D01*
X78578227Y-64221141D01*
X78578500Y-64221500D01*
X78696342Y-64310862D01*
X78833923Y-64365117D01*
X78920382Y-64375500D01*
X78920383Y-64375500D01*
X79504617Y-64375500D01*
X79504618Y-64375500D01*
X79591077Y-64365117D01*
X79728658Y-64310862D01*
X79846500Y-64221500D01*
X79881276Y-64175639D01*
X79942196Y-64128340D01*
X80018605Y-64117837D01*
X80090030Y-64146946D01*
X80118721Y-64175637D01*
X80153500Y-64221500D01*
X80271342Y-64310862D01*
X80408923Y-64365117D01*
X80495382Y-64375500D01*
X80495383Y-64375500D01*
X81079617Y-64375500D01*
X81079618Y-64375500D01*
X81166077Y-64365117D01*
X81303658Y-64310862D01*
X81421500Y-64221500D01*
X81510862Y-64103658D01*
X81561388Y-63975530D01*
X81607289Y-63913549D01*
X81678031Y-63882820D01*
X81754660Y-63891580D01*
X81816643Y-63937481D01*
X81838612Y-63975532D01*
X81889135Y-64103653D01*
X81889137Y-64103657D01*
X81978227Y-64221141D01*
X81978500Y-64221500D01*
X82096342Y-64310862D01*
X82233923Y-64365117D01*
X82320382Y-64375500D01*
X82320383Y-64375500D01*
X82904617Y-64375500D01*
X82904618Y-64375500D01*
X82991077Y-64365117D01*
X83128658Y-64310862D01*
X83246500Y-64221500D01*
X83335862Y-64103658D01*
X83390117Y-63966077D01*
X83400500Y-63879618D01*
X83400500Y-63320382D01*
X83390117Y-63233923D01*
X83335862Y-63096342D01*
X83281274Y-63024356D01*
X83246501Y-62978501D01*
X83246498Y-62978498D01*
X83158223Y-62911558D01*
X83128658Y-62889138D01*
X83128655Y-62889137D01*
X83128654Y-62889136D01*
X83107336Y-62880729D01*
X83045354Y-62834827D01*
X83014628Y-62764084D01*
X83013000Y-62742119D01*
X83013000Y-62559774D01*
X83012999Y-62559770D01*
X83010339Y-62549841D01*
X82985707Y-62457912D01*
X82971535Y-62433365D01*
X82932984Y-62366593D01*
X82932981Y-62366589D01*
X82932980Y-62366587D01*
X82923951Y-62357558D01*
X82885389Y-62290766D01*
X82885389Y-62213638D01*
X82887599Y-62206177D01*
X82938707Y-62048885D01*
X82968267Y-61862248D01*
X82968267Y-61673286D01*
X82938707Y-61486649D01*
X82880314Y-61306935D01*
X82794527Y-61138568D01*
X82683457Y-60985694D01*
X82549840Y-60852077D01*
X82396966Y-60741007D01*
X82337750Y-60710835D01*
X82228609Y-60655225D01*
X82228608Y-60655224D01*
X82228599Y-60655220D01*
X82048885Y-60596827D01*
X81862248Y-60567267D01*
X81673286Y-60567267D01*
X81486649Y-60596827D01*
X81306942Y-60655218D01*
X81301368Y-60657029D01*
X81300990Y-60655867D01*
X81230939Y-60665079D01*
X81159686Y-60635553D01*
X81112742Y-60574356D01*
X81102687Y-60497887D01*
X81111096Y-60466515D01*
X81110738Y-60466399D01*
X81112547Y-60460832D01*
X81170940Y-60281118D01*
X81200500Y-60094481D01*
X81200500Y-59905519D01*
X81170940Y-59718882D01*
X81112547Y-59539168D01*
X81112546Y-59539166D01*
X81110738Y-59533601D01*
X81111903Y-59533222D01*
X81102683Y-59463197D01*
X81132197Y-59391939D01*
X81193386Y-59344985D01*
X81269854Y-59334916D01*
X81301251Y-59343328D01*
X81301368Y-59342971D01*
X81306933Y-59344779D01*
X81306935Y-59344780D01*
X81486649Y-59403173D01*
X81673286Y-59432733D01*
X81673291Y-59432733D01*
X81862243Y-59432733D01*
X81862248Y-59432733D01*
X82048885Y-59403173D01*
X82228599Y-59344780D01*
X82396966Y-59258993D01*
X82549840Y-59147923D01*
X82683457Y-59014306D01*
X82794527Y-58861432D01*
X82880314Y-58693065D01*
X82938707Y-58513351D01*
X82968267Y-58326714D01*
X82968267Y-58137752D01*
X82938707Y-57951115D01*
X82880314Y-57771401D01*
X82794527Y-57603034D01*
X82683457Y-57450160D01*
X82549840Y-57316543D01*
X82396966Y-57205473D01*
X82228599Y-57119686D01*
X82048885Y-57061293D01*
X81862248Y-57031733D01*
X81673286Y-57031733D01*
X81486649Y-57061293D01*
X81306935Y-57119686D01*
X81306930Y-57119688D01*
X81306924Y-57119691D01*
X81138571Y-57205471D01*
X81138566Y-57205474D01*
X80985703Y-57316536D01*
X80985692Y-57316545D01*
X80852079Y-57450158D01*
X80852070Y-57450169D01*
X80741008Y-57603032D01*
X80741005Y-57603037D01*
X80655225Y-57771390D01*
X80655222Y-57771396D01*
X80655220Y-57771401D01*
X80596827Y-57951115D01*
X80567267Y-58137752D01*
X80567267Y-58326714D01*
X80596827Y-58513351D01*
X80655218Y-58693058D01*
X80657029Y-58698632D01*
X80655864Y-58699010D01*
X80665081Y-58769050D01*
X80635560Y-58840305D01*
X80574366Y-58887252D01*
X80497897Y-58897314D01*
X80466515Y-58888904D01*
X80466399Y-58889262D01*
X80460832Y-58887453D01*
X80281118Y-58829060D01*
X80094481Y-58799500D01*
X79905519Y-58799500D01*
X79718882Y-58829060D01*
X79599697Y-58867786D01*
X79533601Y-58889262D01*
X79533223Y-58888100D01*
X79463172Y-58897312D01*
X79391919Y-58867786D01*
X79344975Y-58806589D01*
X79334920Y-58730120D01*
X79343329Y-58698748D01*
X79342971Y-58698632D01*
X79344782Y-58693058D01*
X79403173Y-58513351D01*
X79432733Y-58326714D01*
X79432733Y-58137752D01*
X79403173Y-57951115D01*
X79344780Y-57771401D01*
X79258993Y-57603034D01*
X79147923Y-57450160D01*
X79014306Y-57316543D01*
X78861432Y-57205473D01*
X78693065Y-57119686D01*
X78513351Y-57061293D01*
X78326714Y-57031733D01*
X78137752Y-57031733D01*
X77951115Y-57061293D01*
X77771401Y-57119686D01*
X77771396Y-57119688D01*
X77771390Y-57119691D01*
X77603037Y-57205471D01*
X77603032Y-57205474D01*
X77450169Y-57316536D01*
X77450158Y-57316545D01*
X77316545Y-57450158D01*
X77316536Y-57450169D01*
X77205474Y-57603032D01*
X77205471Y-57603037D01*
X77119691Y-57771390D01*
X77119688Y-57771396D01*
X77119686Y-57771401D01*
X77061293Y-57951115D01*
X77031733Y-58137752D01*
X77031733Y-58137756D01*
X77031733Y-58237661D01*
X77011771Y-58312161D01*
X76957233Y-58366699D01*
X76882733Y-58386661D01*
X76809706Y-58367538D01*
X76803661Y-58364139D01*
X76763653Y-58348362D01*
X76666077Y-58309883D01*
X76666074Y-58309882D01*
X76666073Y-58309882D01*
X76579618Y-58299500D01*
X76020382Y-58299500D01*
X76020381Y-58299500D01*
X75933926Y-58309882D01*
X75933924Y-58309882D01*
X75933923Y-58309883D01*
X75891255Y-58326709D01*
X75796343Y-58364137D01*
X75796342Y-58364137D01*
X75678501Y-58453498D01*
X75678498Y-58453501D01*
X75589137Y-58571342D01*
X75589137Y-58571343D01*
X75565265Y-58631880D01*
X75538793Y-58699010D01*
X75534883Y-58708924D01*
X75534882Y-58708926D01*
X75524500Y-58795381D01*
X73410231Y-58795381D01*
X73507478Y-58348347D01*
X73510101Y-58338071D01*
X73641842Y-57889404D01*
X73645191Y-57879340D01*
X73808620Y-57441168D01*
X73812672Y-57431387D01*
X74006929Y-57006025D01*
X74011689Y-56996517D01*
X74235794Y-56586099D01*
X74241199Y-56576989D01*
X74494028Y-56183578D01*
X74500063Y-56174886D01*
X74780315Y-55800513D01*
X74786976Y-55792249D01*
X75093188Y-55438863D01*
X75100421Y-55431092D01*
X75431092Y-55100421D01*
X75438863Y-55093188D01*
X75792249Y-54786976D01*
X75800513Y-54780315D01*
X76174886Y-54500063D01*
X76183578Y-54494028D01*
X76576989Y-54241199D01*
X76586099Y-54235794D01*
X76996519Y-54011687D01*
X77006028Y-54006928D01*
X77020655Y-54000248D01*
X77431387Y-53812672D01*
X77441168Y-53808620D01*
X77879340Y-53645191D01*
X77889404Y-53641842D01*
X78338071Y-53510101D01*
X78348347Y-53507478D01*
X78805311Y-53408071D01*
X78815731Y-53406192D01*
X79278599Y-53339641D01*
X79289153Y-53338507D01*
X79755566Y-53305149D01*
X79766195Y-53304769D01*
X80233805Y-53304769D01*
X80244434Y-53305149D01*
G37*
%TD.AperFunction*%
%TD*%
M02*
