%TF.GenerationSoftware,KiCad,Pcbnew,9.0.4*%
%TF.CreationDate,2026-02-19T21:55:22-06:00*%
%TF.ProjectId,CANCap,43414e43-6170-42e6-9b69-6361645f7063,rev?*%
%TF.SameCoordinates,Original*%
%TF.FileFunction,Legend,Bot*%
%TF.FilePolarity,Positive*%
%FSLAX46Y46*%
G04 Gerber Fmt 4.6, Leading zero omitted, Abs format (unit mm)*
G04 Created by KiCad (PCBNEW 9.0.4) date 2026-02-19 21:55:22*
%MOMM*%
%LPD*%
G01*
G04 APERTURE LIST*
%ADD10C,0.150000*%
%ADD11C,0.400000*%
%ADD12C,0.120000*%
G04 APERTURE END LIST*
D10*
X79233332Y-65186104D02*
X79271428Y-65224200D01*
X79271428Y-65224200D02*
X79385713Y-65262295D01*
X79385713Y-65262295D02*
X79461904Y-65262295D01*
X79461904Y-65262295D02*
X79576190Y-65224200D01*
X79576190Y-65224200D02*
X79652380Y-65148009D01*
X79652380Y-65148009D02*
X79690475Y-65071819D01*
X79690475Y-65071819D02*
X79728571Y-64919438D01*
X79728571Y-64919438D02*
X79728571Y-64805152D01*
X79728571Y-64805152D02*
X79690475Y-64652771D01*
X79690475Y-64652771D02*
X79652380Y-64576580D01*
X79652380Y-64576580D02*
X79576190Y-64500390D01*
X79576190Y-64500390D02*
X79461904Y-64462295D01*
X79461904Y-64462295D02*
X79385713Y-64462295D01*
X79385713Y-64462295D02*
X79271428Y-64500390D01*
X79271428Y-64500390D02*
X79233332Y-64538485D01*
X78471428Y-65262295D02*
X78928571Y-65262295D01*
X78699999Y-65262295D02*
X78699999Y-64462295D01*
X78699999Y-64462295D02*
X78776190Y-64576580D01*
X78776190Y-64576580D02*
X78852380Y-64652771D01*
X78852380Y-64652771D02*
X78928571Y-64690866D01*
X75462295Y-59866667D02*
X75081342Y-59600000D01*
X75462295Y-59409524D02*
X74662295Y-59409524D01*
X74662295Y-59409524D02*
X74662295Y-59714286D01*
X74662295Y-59714286D02*
X74700390Y-59790476D01*
X74700390Y-59790476D02*
X74738485Y-59828571D01*
X74738485Y-59828571D02*
X74814676Y-59866667D01*
X74814676Y-59866667D02*
X74928961Y-59866667D01*
X74928961Y-59866667D02*
X75005152Y-59828571D01*
X75005152Y-59828571D02*
X75043247Y-59790476D01*
X75043247Y-59790476D02*
X75081342Y-59714286D01*
X75081342Y-59714286D02*
X75081342Y-59409524D01*
X75462295Y-60628571D02*
X75462295Y-60171428D01*
X75462295Y-60400000D02*
X74662295Y-60400000D01*
X74662295Y-60400000D02*
X74776580Y-60323809D01*
X74776580Y-60323809D02*
X74852771Y-60247619D01*
X74852771Y-60247619D02*
X74890866Y-60171428D01*
X81033332Y-65262295D02*
X81299999Y-64881342D01*
X81490475Y-65262295D02*
X81490475Y-64462295D01*
X81490475Y-64462295D02*
X81185713Y-64462295D01*
X81185713Y-64462295D02*
X81109523Y-64500390D01*
X81109523Y-64500390D02*
X81071428Y-64538485D01*
X81071428Y-64538485D02*
X81033332Y-64614676D01*
X81033332Y-64614676D02*
X81033332Y-64728961D01*
X81033332Y-64728961D02*
X81071428Y-64805152D01*
X81071428Y-64805152D02*
X81109523Y-64843247D01*
X81109523Y-64843247D02*
X81185713Y-64881342D01*
X81185713Y-64881342D02*
X81490475Y-64881342D01*
X80728571Y-64538485D02*
X80690475Y-64500390D01*
X80690475Y-64500390D02*
X80614285Y-64462295D01*
X80614285Y-64462295D02*
X80423809Y-64462295D01*
X80423809Y-64462295D02*
X80347618Y-64500390D01*
X80347618Y-64500390D02*
X80309523Y-64538485D01*
X80309523Y-64538485D02*
X80271428Y-64614676D01*
X80271428Y-64614676D02*
X80271428Y-64690866D01*
X80271428Y-64690866D02*
X80309523Y-64805152D01*
X80309523Y-64805152D02*
X80766666Y-65262295D01*
X80766666Y-65262295D02*
X80271428Y-65262295D01*
D11*
%TO.C,J1*%
X80000000Y-56818019D02*
X79646447Y-56110913D01*
X80353553Y-56110913D01*
X80000000Y-56818019D01*
G36*
X80000000Y-56818019D02*
G01*
X79646447Y-56110913D01*
X80353553Y-56110913D01*
X80000000Y-56818019D01*
G37*
D12*
%TO.C,C1*%
X78554724Y-63077500D02*
X78045276Y-63077500D01*
X78554724Y-64122500D02*
X78045276Y-64122500D01*
%TO.C,R1*%
X75777500Y-59745276D02*
X75777500Y-60254724D01*
X76822500Y-59745276D02*
X76822500Y-60254724D01*
%TO.C,R2*%
X81445276Y-63077500D02*
X81954724Y-63077500D01*
X81445276Y-64122500D02*
X81954724Y-64122500D01*
%TD*%
M02*
