%TF.GenerationSoftware,KiCad,Pcbnew,9.0.4*%
%TF.CreationDate,2026-02-19T21:55:22-06:00*%
%TF.ProjectId,CANCap,43414e43-6170-42e6-9b69-6361645f7063,rev?*%
%TF.SameCoordinates,Original*%
%TF.FileFunction,Legend,Top*%
%TF.FilePolarity,Positive*%
%FSLAX46Y46*%
G04 Gerber Fmt 4.6, Leading zero omitted, Abs format (unit mm)*
G04 Created by KiCad (PCBNEW 9.0.4) date 2026-02-19 21:55:22*
%MOMM*%
%LPD*%
G01*
G04 APERTURE LIST*
%ADD10C,0.150000*%
%ADD11C,0.400000*%
%ADD12C,0.120000*%
G04 APERTURE END LIST*
D10*
X83361905Y-62854819D02*
X83361905Y-61854819D01*
X83361905Y-61854819D02*
X83600000Y-61854819D01*
X83600000Y-61854819D02*
X83742857Y-61902438D01*
X83742857Y-61902438D02*
X83838095Y-61997676D01*
X83838095Y-61997676D02*
X83885714Y-62092914D01*
X83885714Y-62092914D02*
X83933333Y-62283390D01*
X83933333Y-62283390D02*
X83933333Y-62426247D01*
X83933333Y-62426247D02*
X83885714Y-62616723D01*
X83885714Y-62616723D02*
X83838095Y-62711961D01*
X83838095Y-62711961D02*
X83742857Y-62807200D01*
X83742857Y-62807200D02*
X83600000Y-62854819D01*
X83600000Y-62854819D02*
X83361905Y-62854819D01*
X84885714Y-62854819D02*
X84314286Y-62854819D01*
X84600000Y-62854819D02*
X84600000Y-61854819D01*
X84600000Y-61854819D02*
X84504762Y-61997676D01*
X84504762Y-61997676D02*
X84409524Y-62092914D01*
X84409524Y-62092914D02*
X84314286Y-62140533D01*
D11*
%TO.C,J1*%
X80000000Y-56818019D02*
X79646447Y-56110913D01*
X80353553Y-56110913D01*
X80000000Y-56818019D01*
G36*
X80000000Y-56818019D02*
G01*
X79646447Y-56110913D01*
X80353553Y-56110913D01*
X80000000Y-56818019D01*
G37*
D12*
%TO.C,D1*%
X84100000Y-58440000D02*
X83450000Y-58440000D01*
X84100000Y-58440000D02*
X84750000Y-58440000D01*
X84100000Y-61560000D02*
X83450000Y-61560000D01*
X84100000Y-61560000D02*
X84750000Y-61560000D01*
X85502500Y-61840000D02*
X85022500Y-61840000D01*
X85262500Y-61510000D01*
X85502500Y-61840000D01*
G36*
X85502500Y-61840000D02*
G01*
X85022500Y-61840000D01*
X85262500Y-61510000D01*
X85502500Y-61840000D01*
G37*
%TD*%
M02*
